<?xml version="1.0" encoding="UTF-8" standalone="no"?>
<!DOCTYPE svg PUBLIC "-//W3C//DTD SVG 1.1//EN"
 "http://www.w3.org/Graphics/SVG/1.1/DTD/svg11.dtd">
<!-- Generated by graphviz version 2.47.2 (20210527.0053)
 -->
<!-- Title: G Pages: 1 -->
<svg width="839pt" height="1384pt"
 viewBox="0.00 0.00 839.00 1384.00" xmlns="http://www.w3.org/2000/svg" xmlns:xlink="http://www.w3.org/1999/xlink">
<g id="graph0" class="graph" transform="scale(1 1) rotate(0) translate(36 1348)">
<title>G</title>
<polygon fill="#f7f7f7" stroke="transparent" points="-36,36 -36,-1348 803,-1348 803,36 -36,36"/>
<!-- appmodelscategory -->
<g id="node1" class="node">
<title>appmodelscategory</title>
<polygon fill="none" stroke="black" points="446.5,-260.5 305.5,-260.5 305.5,-1.5 446.5,-1.5 446.5,-260.5"/>
<polygon fill="#d3d3d3" stroke="transparent" points="306,-223 306,-260 447,-260 447,-223 306,-223"/>
<polygon fill="none" stroke="black" points="306,-223 306,-260 447,-260 447,-223 306,-223"/>
<text text-anchor="start" x="350.5" y="-237.8" font-family="Helvetica Neue" font-size="14.00" fill="#333333">Category</text>
<polygon fill="#ffffff" stroke="transparent" points="306,-186 306,-223 447,-223 447,-186 306,-186"/>
<polygon fill="none" stroke="black" points="306,-186 306,-223 447,-223 447,-186 306,-186"/>
<text text-anchor="start" x="317" y="-200.8" font-family="Helvetica Neue" font-size="14.00" fill="#333333">id (integer)</text>
<polygon fill="#ffffff" stroke="transparent" points="306,-149 306,-186 447,-186 447,-149 306,-149"/>
<polygon fill="none" stroke="black" points="306,-149 306,-186 447,-186 447,-149 306,-149"/>
<text text-anchor="start" x="317" y="-163.8" font-family="Helvetica Neue" font-size="14.00" fill="#333333">parent_id (integer)</text>
<polygon fill="#ffffff" stroke="transparent" points="306,-112 306,-149 447,-149 447,-112 306,-112"/>
<polygon fill="none" stroke="black" points="306,-112 306,-149 447,-149 447,-112 306,-112"/>
<text text-anchor="start" x="317" y="-126.8" font-family="Helvetica Neue" font-size="14.00" fill="#333333">name (string)</text>
<polygon fill="#ffffff" stroke="transparent" points="306,-75 306,-112 447,-112 447,-75 306,-75"/>
<polygon fill="none" stroke="black" points="306,-75 306,-112 447,-112 447,-75 306,-75"/>
<text text-anchor="start" x="317" y="-89.8" font-family="Helvetica Neue" font-size="14.00" fill="#333333">order (integer)</text>
<polygon fill="#ffffff" stroke="transparent" points="306,-38 306,-75 447,-75 447,-38 306,-38"/>
<polygon fill="none" stroke="black" points="306,-38 306,-75 447,-75 447,-38 306,-38"/>
<text text-anchor="start" x="317" y="-52.8" font-family="Helvetica Neue" font-size="14.00" fill="#333333">created_at (datetime)</text>
<polygon fill="#ffffff" stroke="transparent" points="306,-1 306,-38 447,-38 447,-1 306,-1"/>
<polygon fill="none" stroke="black" points="306,-1 306,-38 447,-38 447,-1 306,-1"/>
<text text-anchor="start" x="317" y="-15.8" font-family="Helvetica Neue" font-size="14.00" fill="#333333">updated_at (datetime)</text>
</g>
<!-- appmodelscategory&#45;&gt;appmodelscategory -->
<g id="edge1" class="edge">
<title>appmodelscategory:id&#45;&gt;appmodelscategory:parent_id</title>
<path fill="none" stroke="#fcbf49" stroke-width="1.8" d="M305.92,-216.76C266.66,-217.37 230.5,-208.67 230.5,-186.5 230.5,-166.23 260.71,-157.22 295.89,-156.29"/>
<polygon fill="#fcbf49" stroke="#fcbf49" stroke-width="1.8" points="295.92,-156.29 305.94,-160.74 300.92,-156.27 305.92,-156.24 305.92,-156.24 305.92,-156.24 300.92,-156.27 305.9,-151.74 295.92,-156.29 295.92,-156.29"/>
<text text-anchor="middle" x="228.5" y="-127.3" font-family="Helvetica Neue" font-size="14.00"> </text>
<text text-anchor="middle" x="207.79" y="-177.02" font-family="Helvetica Neue" font-size="14.00">HasMany</text>
<text text-anchor="middle" x="207.79" y="-162.02" font-family="Helvetica Neue" font-size="14.00">children</text>
</g>
<!-- appmodelscategory&#45;&gt;appmodelscategory -->
<g id="edge2" class="edge">
<title>appmodelscategory:id&#45;&gt;appmodelscategory:parent_id</title>
<path fill="none" stroke="#f77f00" stroke-width="1.8" d="M311.35,-224.97C238.72,-237.59 155.5,-227.37 155.5,-186.5 155.5,-145.65 238.66,-135.42 311.26,-148.02"/>
<polygon fill="#f77f00" stroke="#f77f00" stroke-width="1.8" points="311.69,-224.9 322.36,-227.46 316.61,-223.97 321.52,-223.03 321.52,-223.03 321.52,-223.03 316.61,-223.97 320.68,-218.61 311.69,-224.9 311.69,-224.9"/>
<polygon fill="#f77f00" stroke="#f77f00" stroke-width="1.8" points="316.38,-143.87 314.59,-153.71 312.63,-153.35 314.41,-143.51 316.38,-143.87"/>
<polyline fill="none" stroke="#f77f00" stroke-width="1.8" points="316.47,-148.96 311.55,-148.07 "/>
<text text-anchor="middle" x="153.5" y="-127.3" font-family="Helvetica Neue" font-size="14.00"> </text>
<text text-anchor="middle" x="184.54" y="-205.31" font-family="Helvetica Neue" font-size="14.00">BelongsTo</text>
<text text-anchor="middle" x="184.54" y="-190.31" font-family="Helvetica Neue" font-size="14.00">parent</text>
</g>
<!-- appmodelspost -->
<g id="node2" class="node">
<title>appmodelspost</title>
<polygon fill="none" stroke="black" points="152,-557 0,-557 0,-39 152,-39 152,-557"/>
<polygon fill="#d3d3d3" stroke="transparent" points="0,-520 0,-557 152,-557 152,-520 0,-520"/>
<polygon fill="none" stroke="black" points="0,-520 0,-557 152,-557 152,-520 0,-520"/>
<text text-anchor="start" x="63" y="-534.8" font-family="Helvetica Neue" font-size="14.00" fill="#333333">Post</text>
<polygon fill="#ffffff" stroke="transparent" points="0,-483 0,-520 152,-520 152,-483 0,-483"/>
<polygon fill="none" stroke="black" points="0,-483 0,-520 152,-520 152,-483 0,-483"/>
<text text-anchor="start" x="11" y="-497.8" font-family="Helvetica Neue" font-size="14.00" fill="#333333">id (integer)</text>
<polygon fill="#ffffff" stroke="transparent" points="0,-446 0,-483 152,-483 152,-446 0,-446"/>
<polygon fill="none" stroke="black" points="0,-446 0,-483 152,-483 152,-446 0,-446"/>
<text text-anchor="start" x="11" y="-460.8" font-family="Helvetica Neue" font-size="14.00" fill="#333333">title (string)</text>
<polygon fill="#ffffff" stroke="transparent" points="0,-409 0,-446 152,-446 152,-409 0,-409"/>
<polygon fill="none" stroke="black" points="0,-409 0,-446 152,-446 152,-409 0,-409"/>
<text text-anchor="start" x="11" y="-423.8" font-family="Helvetica Neue" font-size="14.00" fill="#333333">excerpt (text)</text>
<polygon fill="#ffffff" stroke="transparent" points="0,-372 0,-409 152,-409 152,-372 0,-372"/>
<polygon fill="none" stroke="black" points="0,-372 0,-409 152,-409 152,-372 0,-372"/>
<text text-anchor="start" x="11" y="-386.8" font-family="Helvetica Neue" font-size="14.00" fill="#333333">content (text)</text>
<polygon fill="#ffffff" stroke="transparent" points="0,-335 0,-372 152,-372 152,-335 0,-335"/>
<polygon fill="none" stroke="black" points="0,-335 0,-372 152,-372 152,-335 0,-335"/>
<text text-anchor="start" x="11" y="-349.8" font-family="Helvetica Neue" font-size="14.00" fill="#333333">author (string)</text>
<polygon fill="#ffffff" stroke="transparent" points="0,-298 0,-335 152,-335 152,-298 0,-298"/>
<polygon fill="none" stroke="black" points="0,-298 0,-335 152,-335 152,-298 0,-298"/>
<text text-anchor="start" x="11" y="-312.8" font-family="Helvetica Neue" font-size="14.00" fill="#333333">img (string)</text>
<polygon fill="#ffffff" stroke="transparent" points="0,-261 0,-298 152,-298 152,-261 0,-261"/>
<polygon fill="none" stroke="black" points="0,-261 0,-298 152,-298 152,-261 0,-261"/>
<text text-anchor="start" x="11" y="-275.8" font-family="Helvetica Neue" font-size="14.00" fill="#333333">published_on (datetime)</text>
<polygon fill="#ffffff" stroke="transparent" points="0,-224 0,-261 152,-261 152,-224 0,-224"/>
<polygon fill="none" stroke="black" points="0,-224 0,-261 152,-261 152,-224 0,-224"/>
<text text-anchor="start" x="11" y="-238.8" font-family="Helvetica Neue" font-size="14.00" fill="#333333">fetched (boolean)</text>
<polygon fill="#ffffff" stroke="transparent" points="0,-187 0,-224 152,-224 152,-187 0,-187"/>
<polygon fill="none" stroke="black" points="0,-187 0,-224 152,-224 152,-187 0,-187"/>
<text text-anchor="start" x="11" y="-201.8" font-family="Helvetica Neue" font-size="14.00" fill="#333333">category_id (integer)</text>
<polygon fill="#ffffff" stroke="transparent" points="0,-150 0,-187 152,-187 152,-150 0,-150"/>
<polygon fill="none" stroke="black" points="0,-150 0,-187 152,-187 152,-150 0,-150"/>
<text text-anchor="start" x="11" y="-164.8" font-family="Helvetica Neue" font-size="14.00" fill="#333333">section_id (integer)</text>
<polygon fill="#ffffff" stroke="transparent" points="0,-113 0,-150 152,-150 152,-113 0,-113"/>
<polygon fill="none" stroke="black" points="0,-113 0,-150 152,-150 152,-113 0,-113"/>
<text text-anchor="start" x="11" y="-127.8" font-family="Helvetica Neue" font-size="14.00" fill="#333333">created_at (datetime)</text>
<polygon fill="#ffffff" stroke="transparent" points="0,-76 0,-113 152,-113 152,-76 0,-76"/>
<polygon fill="none" stroke="black" points="0,-76 0,-113 152,-113 152,-76 0,-76"/>
<text text-anchor="start" x="11" y="-90.8" font-family="Helvetica Neue" font-size="14.00" fill="#333333">updated_at (datetime)</text>
<polygon fill="#ffffff" stroke="transparent" points="0,-39 0,-76 152,-76 152,-39 0,-39"/>
<polygon fill="none" stroke="black" points="0,-39 0,-76 152,-76 152,-39 0,-39"/>
<text text-anchor="start" x="11" y="-53.8" font-family="Helvetica Neue" font-size="14.00" fill="#333333">import_from (boolean)</text>
</g>
<!-- appmodelspost&#45;&gt;appmodelscategory -->
<g id="edge3" class="edge">
<title>appmodelspost:category_id&#45;&gt;appmodelscategory:id</title>
<path fill="none" stroke="#f77f00" stroke-width="1.8" d="M162.04,-205C191.69,-205 278.16,-205 299.96,-205"/>
<polygon fill="#f77f00" stroke="#f77f00" stroke-width="1.8" points="162,-205 152,-200.5 157,-205 152,-205 152,-205 152,-205 157,-205 152,-209.5 162,-205 162,-205"/>
<polygon fill="#f77f00" stroke="#f77f00" stroke-width="1.8" points="304,-200 304,-210 302,-210 302,-200 304,-200"/>
<polyline fill="none" stroke="#f77f00" stroke-width="1.8" points="305,-205 300,-205 "/>
<text text-anchor="middle" x="226" y="-208.8" font-family="Helvetica Neue" font-size="14.00"> </text>
<text text-anchor="middle" x="260" y="-223.8" font-family="Helvetica Neue" font-size="14.00">BelongsTo</text>
<text text-anchor="middle" x="260" y="-208.8" font-family="Helvetica Neue" font-size="14.00">category</text>
</g>
<!-- favorites -->
<g id="node3" class="node">
<title>favorites</title>
<polygon fill="none" stroke="black" points="446.5,-574 305.5,-574 305.5,-352 446.5,-352 446.5,-574"/>
<polygon fill="#d3d3d3" stroke="transparent" points="306,-537 306,-574 447,-574 447,-537 306,-537"/>
<polygon fill="none" stroke="black" points="306,-537 306,-574 447,-574 447,-537 306,-537"/>
<text text-anchor="start" x="363" y="-551.8" font-family="Helvetica Neue" font-size="14.00" fill="#333333">Pivot</text>
<polygon fill="#ffffff" stroke="transparent" points="306,-500 306,-537 447,-537 447,-500 306,-500"/>
<polygon fill="none" stroke="black" points="306,-500 306,-537 447,-537 447,-500 306,-500"/>
<text text-anchor="start" x="317" y="-514.8" font-family="Helvetica Neue" font-size="14.00" fill="#333333">id (bigint)</text>
<polygon fill="#ffffff" stroke="transparent" points="306,-463 306,-500 447,-500 447,-463 306,-463"/>
<polygon fill="none" stroke="black" points="306,-463 306,-500 447,-500 447,-463 306,-463"/>
<text text-anchor="start" x="317" y="-477.8" font-family="Helvetica Neue" font-size="14.00" fill="#333333">user_id (bigint)</text>
<polygon fill="#ffffff" stroke="transparent" points="306,-426 306,-463 447,-463 447,-426 306,-426"/>
<polygon fill="none" stroke="black" points="306,-426 306,-463 447,-463 447,-426 306,-426"/>
<text text-anchor="start" x="317" y="-440.8" font-family="Helvetica Neue" font-size="14.00" fill="#333333">post_id (bigint)</text>
<polygon fill="#ffffff" stroke="transparent" points="306,-389 306,-426 447,-426 447,-389 306,-389"/>
<polygon fill="none" stroke="black" points="306,-389 306,-426 447,-426 447,-389 306,-389"/>
<text text-anchor="start" x="317" y="-403.8" font-family="Helvetica Neue" font-size="14.00" fill="#333333">created_at (datetime)</text>
<polygon fill="#ffffff" stroke="transparent" points="306,-352 306,-389 447,-389 447,-352 306,-352"/>
<polygon fill="none" stroke="black" points="306,-352 306,-389 447,-389 447,-352 306,-352"/>
<text text-anchor="start" x="317" y="-366.8" font-family="Helvetica Neue" font-size="14.00" fill="#333333">updated_at (datetime)</text>
</g>
<!-- appmodelspost&#45;&gt;favorites -->
<g id="edge4" class="edge">
<title>appmodelspost:id&#45;&gt;favorites:user_id</title>
<path fill="none" stroke="#003049" stroke-width="1.8" d="M152,-502C152,-502 260.92,-487.76 294.96,-483.31"/>
<polygon fill="#003049" stroke="#003049" stroke-width="1.8" points="295.54,-486.77 305,-482 294.63,-479.83 295.54,-486.77"/>
<text text-anchor="middle" x="226" y="-496.8" font-family="Helvetica Neue" font-size="14.00"> </text>
<text text-anchor="middle" x="267.98" y="-481.46" font-family="Helvetica Neue" font-size="14.00">BelongsToMany</text>
<text text-anchor="middle" x="267.98" y="-466.46" font-family="Helvetica Neue" font-size="14.00">users</text>
</g>
<!-- favorites&#45;&gt;appmodelspost -->
<g id="edge8" class="edge">
<title>favorites:post_id&#45;&gt;appmodelspost:id</title>
<path fill="none" stroke="#003049" stroke-width="1.8" d="M305,-444C305,-444 224,-460 224,-460 224,-460 180.05,-485.63 160.83,-496.85"/>
<polygon fill="#003049" stroke="#003049" stroke-width="1.8" points="158.87,-493.94 152,-502 162.4,-499.98 158.87,-493.94"/>
<text text-anchor="middle" x="226" y="-463.8" font-family="Helvetica Neue" font-size="14.00"> </text>
<text text-anchor="middle" x="184.13" y="-447.89" font-family="Helvetica Neue" font-size="14.00">BelongsToMany</text>
<text text-anchor="middle" x="184.13" y="-432.89" font-family="Helvetica Neue" font-size="14.00">favorites</text>
</g>
<!-- appmodelsuser -->
<g id="node4" class="node">
<title>appmodelsuser</title>
<polygon fill="none" stroke="black" points="767,-518 600,-518 600,0 767,0 767,-518"/>
<polygon fill="#d3d3d3" stroke="transparent" points="600.5,-481 600.5,-518 767.5,-518 767.5,-481 600.5,-481"/>
<polygon fill="none" stroke="black" points="600.5,-481 600.5,-518 767.5,-518 767.5,-481 600.5,-481"/>
<text text-anchor="start" x="670.5" y="-495.8" font-family="Helvetica Neue" font-size="14.00" fill="#333333">User</text>
<polygon fill="#ffffff" stroke="transparent" points="600.5,-444 600.5,-481 767.5,-481 767.5,-444 600.5,-444"/>
<polygon fill="none" stroke="black" points="600.5,-444 600.5,-481 767.5,-481 767.5,-444 600.5,-444"/>
<text text-anchor="start" x="611.5" y="-458.8" font-family="Helvetica Neue" font-size="14.00" fill="#333333">id (bigint)</text>
<polygon fill="#ffffff" stroke="transparent" points="600.5,-407 600.5,-444 767.5,-444 767.5,-407 600.5,-407"/>
<polygon fill="none" stroke="black" points="600.5,-407 600.5,-444 767.5,-444 767.5,-407 600.5,-407"/>
<text text-anchor="start" x="611.5" y="-421.8" font-family="Helvetica Neue" font-size="14.00" fill="#333333">role_id (bigint)</text>
<polygon fill="#ffffff" stroke="transparent" points="600.5,-370 600.5,-407 767.5,-407 767.5,-370 600.5,-370"/>
<polygon fill="none" stroke="black" points="600.5,-370 600.5,-407 767.5,-407 767.5,-370 600.5,-370"/>
<text text-anchor="start" x="611.5" y="-384.8" font-family="Helvetica Neue" font-size="14.00" fill="#333333">name (string)</text>
<polygon fill="#ffffff" stroke="transparent" points="600.5,-333 600.5,-370 767.5,-370 767.5,-333 600.5,-333"/>
<polygon fill="none" stroke="black" points="600.5,-333 600.5,-370 767.5,-370 767.5,-333 600.5,-333"/>
<text text-anchor="start" x="611.5" y="-347.8" font-family="Helvetica Neue" font-size="14.00" fill="#333333">email (string)</text>
<polygon fill="#ffffff" stroke="transparent" points="600.5,-296 600.5,-333 767.5,-333 767.5,-296 600.5,-296"/>
<polygon fill="none" stroke="black" points="600.5,-296 600.5,-333 767.5,-333 767.5,-296 600.5,-296"/>
<text text-anchor="start" x="611.5" y="-310.8" font-family="Helvetica Neue" font-size="14.00" fill="#333333">avatar (string)</text>
<polygon fill="#ffffff" stroke="transparent" points="600.5,-259 600.5,-296 767.5,-296 767.5,-259 600.5,-259"/>
<polygon fill="none" stroke="black" points="600.5,-259 600.5,-296 767.5,-296 767.5,-259 600.5,-259"/>
<text text-anchor="start" x="611.5" y="-273.8" font-family="Helvetica Neue" font-size="14.00" fill="#333333">email_verified_at (datetime)</text>
<polygon fill="#ffffff" stroke="transparent" points="600.5,-222 600.5,-259 767.5,-259 767.5,-222 600.5,-222"/>
<polygon fill="none" stroke="black" points="600.5,-222 600.5,-259 767.5,-259 767.5,-222 600.5,-222"/>
<text text-anchor="start" x="611.5" y="-236.8" font-family="Helvetica Neue" font-size="14.00" fill="#333333">password (string)</text>
<polygon fill="#ffffff" stroke="transparent" points="600.5,-185 600.5,-222 767.5,-222 767.5,-185 600.5,-185"/>
<polygon fill="none" stroke="black" points="600.5,-185 600.5,-222 767.5,-222 767.5,-185 600.5,-185"/>
<text text-anchor="start" x="611.5" y="-199.8" font-family="Helvetica Neue" font-size="14.00" fill="#333333">remember_token (string)</text>
<polygon fill="#ffffff" stroke="transparent" points="600.5,-148 600.5,-185 767.5,-185 767.5,-148 600.5,-148"/>
<polygon fill="none" stroke="black" points="600.5,-148 600.5,-185 767.5,-185 767.5,-148 600.5,-148"/>
<text text-anchor="start" x="611.5" y="-162.8" font-family="Helvetica Neue" font-size="14.00" fill="#333333">settings (text)</text>
<polygon fill="#ffffff" stroke="transparent" points="600.5,-111 600.5,-148 767.5,-148 767.5,-111 600.5,-111"/>
<polygon fill="none" stroke="black" points="600.5,-111 600.5,-148 767.5,-148 767.5,-111 600.5,-111"/>
<text text-anchor="start" x="611.5" y="-125.8" font-family="Helvetica Neue" font-size="14.00" fill="#333333">created_at (datetime)</text>
<polygon fill="#ffffff" stroke="transparent" points="600.5,-74 600.5,-111 767.5,-111 767.5,-74 600.5,-74"/>
<polygon fill="none" stroke="black" points="600.5,-74 600.5,-111 767.5,-111 767.5,-74 600.5,-74"/>
<text text-anchor="start" x="611.5" y="-88.8" font-family="Helvetica Neue" font-size="14.00" fill="#333333">updated_at (datetime)</text>
<polygon fill="#ffffff" stroke="transparent" points="600.5,-37 600.5,-74 767.5,-74 767.5,-37 600.5,-37"/>
<polygon fill="none" stroke="black" points="600.5,-37 600.5,-74 767.5,-74 767.5,-37 600.5,-37"/>
<text text-anchor="start" x="611.5" y="-51.8" font-family="Helvetica Neue" font-size="14.00" fill="#333333">phone (string)</text>
<polygon fill="#ffffff" stroke="transparent" points="600.5,0 600.5,-37 767.5,-37 767.5,0 600.5,0"/>
<polygon fill="none" stroke="black" points="600.5,0 600.5,-37 767.5,-37 767.5,0 600.5,0"/>
<text text-anchor="start" x="611.5" y="-14.8" font-family="Helvetica Neue" font-size="14.00" fill="#333333">last_name (string)</text>
</g>
<!-- favorites&#45;&gt;appmodelsuser -->
<g id="edge5" class="edge">
<title>favorites:post_id&#45;&gt;appmodelsuser:id</title>
<path fill="none" stroke="#003049" stroke-width="1.8" d="M448,-444C448,-444 524,-412 524,-412 524,-412 528,-412 528,-412 528,-412 572.83,-443.75 591.74,-457.15"/>
<polygon fill="#003049" stroke="#003049" stroke-width="1.8" points="589.82,-460.08 600,-463 593.86,-454.36 589.82,-460.08"/>
<text text-anchor="middle" x="526" y="-415.8" font-family="Helvetica Neue" font-size="14.00"> </text>
<text text-anchor="middle" x="479.34" y="-400.87" font-family="Helvetica Neue" font-size="14.00">BelongsToMany</text>
<text text-anchor="middle" x="479.34" y="-385.87" font-family="Helvetica Neue" font-size="14.00">users</text>
</g>
<!-- appmodelsuser&#45;&gt;favorites -->
<g id="edge7" class="edge">
<title>appmodelsuser:id&#45;&gt;favorites:user_id</title>
<path fill="none" stroke="#003049" stroke-width="1.8" d="M600,-463C600,-463 491.79,-476.53 457.97,-480.75"/>
<polygon fill="#003049" stroke="#003049" stroke-width="1.8" points="457.49,-477.29 448,-482 458.36,-484.23 457.49,-477.29"/>
<text text-anchor="middle" x="526" y="-476.8" font-family="Helvetica Neue" font-size="14.00"> </text>
<text text-anchor="middle" x="484.49" y="-460.68" font-family="Helvetica Neue" font-size="14.00">BelongsToMany</text>
<text text-anchor="middle" x="484.49" y="-445.68" font-family="Helvetica Neue" font-size="14.00">favorites</text>
</g>
<!-- appmodelsprogram -->
<g id="node5" class="node">
<title>appmodelsprogram</title>
<polygon fill="none" stroke="black" points="146.5,-1238 5.5,-1238 5.5,-868 146.5,-868 146.5,-1238"/>
<polygon fill="#d3d3d3" stroke="transparent" points="6,-1201 6,-1238 147,-1238 147,-1201 6,-1201"/>
<polygon fill="none" stroke="black" points="6,-1201 6,-1238 147,-1238 147,-1201 6,-1201"/>
<text text-anchor="start" x="52" y="-1215.8" font-family="Helvetica Neue" font-size="14.00" fill="#333333">Program</text>
<polygon fill="#ffffff" stroke="transparent" points="6,-1164 6,-1201 147,-1201 147,-1164 6,-1164"/>
<polygon fill="none" stroke="black" points="6,-1164 6,-1201 147,-1201 147,-1164 6,-1164"/>
<text text-anchor="start" x="17" y="-1178.8" font-family="Helvetica Neue" font-size="14.00" fill="#333333">id (bigint)</text>
<polygon fill="#ffffff" stroke="transparent" points="6,-1127 6,-1164 147,-1164 147,-1127 6,-1127"/>
<polygon fill="none" stroke="black" points="6,-1127 6,-1164 147,-1164 147,-1127 6,-1127"/>
<text text-anchor="start" x="17" y="-1141.8" font-family="Helvetica Neue" font-size="14.00" fill="#333333">playlist_id (string)</text>
<polygon fill="#ffffff" stroke="transparent" points="6,-1090 6,-1127 147,-1127 147,-1090 6,-1090"/>
<polygon fill="none" stroke="black" points="6,-1090 6,-1127 147,-1127 147,-1090 6,-1090"/>
<text text-anchor="start" x="17" y="-1104.8" font-family="Helvetica Neue" font-size="14.00" fill="#333333">title (string)</text>
<polygon fill="#ffffff" stroke="transparent" points="6,-1053 6,-1090 147,-1090 147,-1053 6,-1053"/>
<polygon fill="none" stroke="black" points="6,-1053 6,-1090 147,-1090 147,-1053 6,-1053"/>
<text text-anchor="start" x="17" y="-1067.8" font-family="Helvetica Neue" font-size="14.00" fill="#333333">order (boolean)</text>
<polygon fill="#ffffff" stroke="transparent" points="6,-1016 6,-1053 147,-1053 147,-1016 6,-1016"/>
<polygon fill="none" stroke="black" points="6,-1016 6,-1053 147,-1053 147,-1016 6,-1016"/>
<text text-anchor="start" x="17" y="-1030.8" font-family="Helvetica Neue" font-size="14.00" fill="#333333">description (text)</text>
<polygon fill="#ffffff" stroke="transparent" points="6,-979 6,-1016 147,-1016 147,-979 6,-979"/>
<polygon fill="none" stroke="black" points="6,-979 6,-1016 147,-1016 147,-979 6,-979"/>
<text text-anchor="start" x="17" y="-993.8" font-family="Helvetica Neue" font-size="14.00" fill="#333333">thumbnail (string)</text>
<polygon fill="#ffffff" stroke="transparent" points="6,-942 6,-979 147,-979 147,-942 6,-942"/>
<polygon fill="none" stroke="black" points="6,-942 6,-979 147,-979 147,-942 6,-942"/>
<text text-anchor="start" x="17" y="-956.8" font-family="Helvetica Neue" font-size="14.00" fill="#333333">created_at (datetime)</text>
<polygon fill="#ffffff" stroke="transparent" points="6,-905 6,-942 147,-942 147,-905 6,-905"/>
<polygon fill="none" stroke="black" points="6,-905 6,-942 147,-942 147,-905 6,-905"/>
<text text-anchor="start" x="17" y="-919.8" font-family="Helvetica Neue" font-size="14.00" fill="#333333">updated_at (datetime)</text>
<polygon fill="#ffffff" stroke="transparent" points="6,-868 6,-905 147,-905 147,-868 6,-868"/>
<polygon fill="none" stroke="black" points="6,-868 6,-905 147,-905 147,-868 6,-868"/>
<text text-anchor="start" x="17" y="-882.8" font-family="Helvetica Neue" font-size="14.00" fill="#333333">processed (boolean)</text>
</g>
<!-- appmodelsvideo -->
<g id="node6" class="node">
<title>appmodelsvideo</title>
<polygon fill="none" stroke="black" points="452,-1312 300,-1312 300,-646 452,-646 452,-1312"/>
<polygon fill="#d3d3d3" stroke="transparent" points="300,-1275 300,-1312 452,-1312 452,-1275 300,-1275"/>
<polygon fill="none" stroke="black" points="300,-1275 300,-1312 452,-1312 452,-1275 300,-1275"/>
<text text-anchor="start" x="360.5" y="-1289.8" font-family="Helvetica Neue" font-size="14.00" fill="#333333">Video</text>
<polygon fill="#ffffff" stroke="transparent" points="300,-1238 300,-1275 452,-1275 452,-1238 300,-1238"/>
<polygon fill="none" stroke="black" points="300,-1238 300,-1275 452,-1275 452,-1238 300,-1238"/>
<text text-anchor="start" x="311" y="-1252.8" font-family="Helvetica Neue" font-size="14.00" fill="#333333">id (bigint)</text>
<polygon fill="#ffffff" stroke="transparent" points="300,-1201 300,-1238 452,-1238 452,-1201 300,-1201"/>
<polygon fill="none" stroke="black" points="300,-1201 300,-1238 452,-1238 452,-1201 300,-1201"/>
<text text-anchor="start" x="311" y="-1215.8" font-family="Helvetica Neue" font-size="14.00" fill="#333333">video_id (string)</text>
<polygon fill="#ffffff" stroke="transparent" points="300,-1164 300,-1201 452,-1201 452,-1164 300,-1164"/>
<polygon fill="none" stroke="black" points="300,-1164 300,-1201 452,-1201 452,-1164 300,-1164"/>
<text text-anchor="start" x="311" y="-1178.8" font-family="Helvetica Neue" font-size="14.00" fill="#333333">program_id (bigint)</text>
<polygon fill="#ffffff" stroke="transparent" points="300,-1127 300,-1164 452,-1164 452,-1127 300,-1127"/>
<polygon fill="none" stroke="black" points="300,-1127 300,-1164 452,-1164 452,-1127 300,-1127"/>
<text text-anchor="start" x="311" y="-1141.8" font-family="Helvetica Neue" font-size="14.00" fill="#333333">title (string)</text>
<polygon fill="#ffffff" stroke="transparent" points="300,-1090 300,-1127 452,-1127 452,-1090 300,-1090"/>
<polygon fill="none" stroke="black" points="300,-1090 300,-1127 452,-1127 452,-1090 300,-1090"/>
<text text-anchor="start" x="311" y="-1104.8" font-family="Helvetica Neue" font-size="14.00" fill="#333333">description (text)</text>
<polygon fill="#ffffff" stroke="transparent" points="300,-1053 300,-1090 452,-1090 452,-1053 300,-1053"/>
<polygon fill="none" stroke="black" points="300,-1053 300,-1090 452,-1090 452,-1053 300,-1053"/>
<text text-anchor="start" x="311" y="-1067.8" font-family="Helvetica Neue" font-size="14.00" fill="#333333">type (string)</text>
<polygon fill="#ffffff" stroke="transparent" points="300,-1016 300,-1053 452,-1053 452,-1016 300,-1016"/>
<polygon fill="none" stroke="black" points="300,-1016 300,-1053 452,-1053 452,-1016 300,-1016"/>
<text text-anchor="start" x="311" y="-1030.8" font-family="Helvetica Neue" font-size="14.00" fill="#333333">url (string)</text>
<polygon fill="#ffffff" stroke="transparent" points="300,-979 300,-1016 452,-1016 452,-979 300,-979"/>
<polygon fill="none" stroke="black" points="300,-979 300,-1016 452,-1016 452,-979 300,-979"/>
<text text-anchor="start" x="311" y="-993.8" font-family="Helvetica Neue" font-size="14.00" fill="#333333">thumbnail (text)</text>
<polygon fill="#ffffff" stroke="transparent" points="300,-942 300,-979 452,-979 452,-942 300,-942"/>
<polygon fill="none" stroke="black" points="300,-942 300,-979 452,-979 452,-942 300,-942"/>
<text text-anchor="start" x="311" y="-956.8" font-family="Helvetica Neue" font-size="14.00" fill="#333333">likes (bigint)</text>
<polygon fill="#ffffff" stroke="transparent" points="300,-905 300,-942 452,-942 452,-905 300,-905"/>
<polygon fill="none" stroke="black" points="300,-905 300,-942 452,-942 452,-905 300,-905"/>
<text text-anchor="start" x="311" y="-919.8" font-family="Helvetica Neue" font-size="14.00" fill="#333333">comments (bigint)</text>
<polygon fill="#ffffff" stroke="transparent" points="300,-868 300,-905 452,-905 452,-868 300,-868"/>
<polygon fill="none" stroke="black" points="300,-868 300,-905 452,-905 452,-868 300,-868"/>
<text text-anchor="start" x="311" y="-882.8" font-family="Helvetica Neue" font-size="14.00" fill="#333333">views (bigint)</text>
<polygon fill="#ffffff" stroke="transparent" points="300,-831 300,-868 452,-868 452,-831 300,-831"/>
<polygon fill="none" stroke="black" points="300,-831 300,-868 452,-868 452,-831 300,-831"/>
<text text-anchor="start" x="311" y="-845.8" font-family="Helvetica Neue" font-size="14.00" fill="#333333">duration (bigint)</text>
<polygon fill="#ffffff" stroke="transparent" points="300,-794 300,-831 452,-831 452,-794 300,-794"/>
<polygon fill="none" stroke="black" points="300,-794 300,-831 452,-831 452,-794 300,-794"/>
<text text-anchor="start" x="311" y="-808.8" font-family="Helvetica Neue" font-size="14.00" fill="#333333">enabled (boolean)</text>
<polygon fill="#ffffff" stroke="transparent" points="300,-757 300,-794 452,-794 452,-757 300,-757"/>
<polygon fill="none" stroke="black" points="300,-757 300,-794 452,-794 452,-757 300,-757"/>
<text text-anchor="start" x="311" y="-771.8" font-family="Helvetica Neue" font-size="14.00" fill="#333333">published_on (datetime)</text>
<polygon fill="#ffffff" stroke="transparent" points="300,-720 300,-757 452,-757 452,-720 300,-720"/>
<polygon fill="none" stroke="black" points="300,-720 300,-757 452,-757 452,-720 300,-720"/>
<text text-anchor="start" x="311" y="-734.8" font-family="Helvetica Neue" font-size="14.00" fill="#333333">created_at (datetime)</text>
<polygon fill="#ffffff" stroke="transparent" points="300,-683 300,-720 452,-720 452,-683 300,-683"/>
<polygon fill="none" stroke="black" points="300,-683 300,-720 452,-720 452,-683 300,-683"/>
<text text-anchor="start" x="311" y="-697.8" font-family="Helvetica Neue" font-size="14.00" fill="#333333">updated_at (datetime)</text>
<polygon fill="#ffffff" stroke="transparent" points="300,-646 300,-683 452,-683 452,-646 300,-646"/>
<polygon fill="none" stroke="black" points="300,-646 300,-683 452,-683 452,-646 300,-646"/>
<text text-anchor="start" x="311" y="-660.8" font-family="Helvetica Neue" font-size="14.00" fill="#333333">active (boolean)</text>
</g>
<!-- appmodelsprogram&#45;&gt;appmodelsvideo -->
<g id="edge6" class="edge">
<title>appmodelsprogram:id&#45;&gt;appmodelsvideo:program_id</title>
<path fill="none" stroke="#fcbf49" stroke-width="1.8" d="M148,-1183C148,-1183 255.21,-1183 289.55,-1183"/>
<polygon fill="#fcbf49" stroke="#fcbf49" stroke-width="1.8" points="290,-1183 300,-1187.5 295,-1183 300,-1183 300,-1183 300,-1183 295,-1183 300,-1178.5 290,-1183 290,-1183"/>
<text text-anchor="middle" x="226" y="-1186.8" font-family="Helvetica Neue" font-size="14.00"> </text>
<text text-anchor="middle" x="191.78" y="-1171.8" font-family="Helvetica Neue" font-size="14.00">HasMany</text>
<text text-anchor="middle" x="191.78" y="-1156.8" font-family="Helvetica Neue" font-size="14.00">videos</text>
</g>
<!-- appmodelsvideo&#45;&gt;appmodelsprogram -->
<g id="edge9" class="edge">
<title>appmodelsvideo:program_id&#45;&gt;appmodelsprogram:id</title>
<path fill="none" stroke="#f77f00" stroke-width="1.8" d="M290.88,-1178.82C271.51,-1169.94 228,-1150 228,-1150 228,-1150 224,-1150 224,-1150 224,-1150 169.89,-1173.49 152.99,-1180.83"/>
<polygon fill="#f77f00" stroke="#f77f00" stroke-width="1.8" points="290.91,-1178.83 298.13,-1187.09 295.45,-1180.92 300,-1183 300,-1183 300,-1183 295.45,-1180.92 301.87,-1178.91 290.91,-1178.83 290.91,-1178.83"/>
<polygon fill="#f77f00" stroke="#f77f00" stroke-width="1.8" points="150.91,-1187.19 146.93,-1178.02 148.76,-1177.22 152.74,-1186.39 150.91,-1187.19"/>
<polyline fill="none" stroke="#f77f00" stroke-width="1.8" points="148,-1183 152.59,-1181.01 "/>
<text text-anchor="middle" x="226" y="-1153.8" font-family="Helvetica Neue" font-size="14.00"> </text>
<text text-anchor="middle" x="193.05" y="-1139.65" font-family="Helvetica Neue" font-size="14.00">BelongsTo</text>
<text text-anchor="middle" x="193.05" y="-1124.65" font-family="Helvetica Neue" font-size="14.00">program</text>
</g>
</g>
</svg>
